<?xml version="1.0" encoding="utf-8"?>
<!-- Generator: Adobe Illustrator 27.8.1, SVG Export Plug-In . SVG Version: 6.00 Build 0)  -->
<svg version="1.1" id="Layer_1" xmlns="http://www.w3.org/2000/svg" xmlns:xlink="http://www.w3.org/1999/xlink" x="0px" y="0px"
	 viewBox="0 0 1103.7 817.5" style="enable-background:new 0 0 1103.7 817.5;" xml:space="preserve">
<style type="text/css">
	.st0{fill:#707070;}
</style>
<g>
	<path class="st0" d="M1103.6,100.6c0.1-40.5-16.2-72.1-52.9-90.4c-12.2-6.2-27.2-9.8-40.9-9.8C899.5,0.1,789.4,0,679.2,0H103
		c-2.6,0-5.2,0.1-7.8,0.1c-54.4,1.1-95,41.8-95,96.2c-0.4,208-0.2,416,0,624c0,21.8,6.2,42,20,59.3c20.7,26.4,48.3,37.7,81.5,37.7
		h514.1c128.4,0,256.9,0.4,385.3-0.4c16.3-0.1,34.1-3.2,48.7-10.1c36.1-17,53.2-47.8,53.7-87.6c0.2-34.8,0-69.6,0-105.9h0.1
		L1103.6,100.6L1103.6,100.6z M81.9,98.3c0-12.7,3.8-16.3,16.3-16.7c5.1-0.1,10.3,0,15.4,0h884.9c4.7,0,10.5-1.2,14.1,0.9
		c4.1,2.4,8.8,7.9,8.9,12.2c0.7,31,0.4,62.1,0.4,94.3c-313.8,0-626,0-939.9,0.1v-14.9C81.9,149,81.8,123.6,81.9,98.3z M1022,713.7
		L1022,713.7c-0.1,20-2.3,22.4-22,22.4H104.1c-20,0-22.2-2.2-22.2-22V269H1022V713.7z"/>
</g>
<path class="st0" d="M923.9,462.7H179.8c-22.5,0-40.8-18.3-40.8-40.8v0c0-22.5,18.3-40.8,40.8-40.8h744.1
	c22.5,0,40.8,18.3,40.8,40.8v0C964.7,444.4,946.5,462.7,923.9,462.7z"/>
<path class="st0" d="M923.9,601.3H617.8c-22.5,0-40.8-18.3-40.8-40.8v0c0-22.5,18.3-40.8,40.8-40.8h306.1
	c22.5,0,40.8,18.3,40.8,40.8v0C964.7,583,946.5,601.3,923.9,601.3z"/>
</svg>
