<?xml version="1.0" encoding="utf-8"?>
<!-- Generator: Adobe Illustrator 27.7.0, SVG Export Plug-In . SVG Version: 6.00 Build 0)  -->
<svg version="1.1" id="Layer_1" xmlns="http://www.w3.org/2000/svg" xmlns:xlink="http://www.w3.org/1999/xlink" x="0px" y="0px"
	 viewBox="0 0 1172.8 1173.4" style="enable-background:new 0 0 1172.8 1173.4;" xml:space="preserve">
<style type="text/css">
	.st0{fill:#4CB748;}
</style>
<path class="st0" d="M0,0h1172.8v1173.4H0V0z M500.9,603.5c3.4-0.5,5.4-1,7.4-1c62.8,1,125.6,1.7,188.3,3.5
	c27.6,0.8,47.3,17.2,55.4,44.5c5.1,17.5,9.9,35.4,11.7,53.4c1.3,13.3,7.2,15.5,18,14.3c3.6-0.4,7.4-0.6,10.9,0
	c14.8,2.5,18.3-4,18.2-18.2c-0.6-87-0.3-173.9-0.3-260.9c0-4.5-0.5-9.1-0.8-13.8h-44.1c-1.5,10-3.7,19.1-4.1,28.2
	c-1.8,51.1-33.6,83-84.2,83.2c-38.5,0.1-77-0.4-115.5-0.6c-19.7-0.1-39.3,0-59.9,0V258.5c17.6,0,34.2-0.2,50.8,0
	c65.9,1.1,131.9,1.7,197.8,3.8c22.5,0.7,42,9.8,55.7,29.8c17,24.9,19.7,54,27.4,81.8c1.3,4.8,5.7,12,9.4,12.5
	c12,1.6,24.4,0.6,37.7,0.6c-2.9-66.2-5.8-130.1-8.6-194.9H255.2c0,12.2,0.5,23.6-0.1,34.9c-0.6,10.5,3.9,13.7,13.8,13.3
	c15.6-0.6,31.4-1.5,46.8,0.1c28.8,3,42.9,10.2,45.9,37c2.4,21.5,5.5,43,5.4,64.5c-0.5,179-1.5,357.9-2.7,536.9
	c-0.1,16.5-2.5,33.6-18.3,43.2c-9,5.5-19.4,10.1-29.8,11.6c-19.7,2.9-39.8,3.2-60.4,4.6v43.7h612.9c24.4-71,48.8-141.8,73.5-213.8
	c-14.5,0-26.6-0.8-38.4,0.4c-4.9,0.5-11.3,3.9-13.9,8c-14.4,22.3-26.9,45.8-41.8,67.7c-27.5,40.4-64.1,68.9-114.7,70.3
	c-68.2,1.8-136.4,0.6-204.6,0.3c-17.1-0.1-25.6-8.6-26.7-25.3c-0.8-12-0.9-24.1-0.9-36.2c-0.2-77.6-0.3-155.2-0.4-232.7
	C500.9,615,500.9,609.4,500.9,603.5L500.9,603.5z"/>
</svg>
