<?xml version="1.0" encoding="UTF-8"?>
<svg id="Layer_1" data-name="Layer 1" xmlns="http://www.w3.org/2000/svg" viewBox="0 0 290.59 243.15">
  <defs>
    <style>
      .cls-1 {
        fill: #4cb748;
      }
    </style>
  </defs>
  <polygon class="cls-1" points="58.46 64.99 58.44 64.92 58.44 .25 116.35 .25 116.35 64.81 174.25 78.97 174.25 .25 232.16 .25 232.16 86.65 236.39 86.48 240.62 86.19 244.9 85.85 249.13 85.34 253.3 84.77 257.53 84.09 261.7 83.35 265.88 82.44 270.05 81.47 274.16 80.39 278.22 79.26 282.34 77.95 286.34 76.58 290.35 75.1 287.87 77.95 285.27 80.73 282.57 83.41 279.8 86.02 276.98 88.53 274.05 90.92 271.06 93.25 267.96 95.41 264.81 97.51 261.59 99.56 258.32 101.44 254.99 103.2 251.61 104.85 248.17 106.44 244.68 107.87 241.12 109.17 237.57 110.37 233.91 111.45 230.3 112.42 226.58 113.27 222.91 114.01 219.13 114.58 215.41 115.03 211.64 115.37 207.86 115.6 204.14 115.72 200.36 115.66 196.58 115.54 192.8 115.26 189.03 114.81 185.3 114.29 181.58 113.67 177.92 112.87 174.25 111.96 174.25 112.02 105.97 95.35 105.92 95.35 101.57 94.39 97.18 93.48 92.78 92.62 88.38 91.94 83.93 91.37 79.47 90.92 75.02 90.57 70.56 90.35 66.05 90.18 61.6 90.18 57.14 90.29 52.69 90.52 48.18 90.8 43.72 91.26 39.33 91.83 34.87 92.45 30.47 93.25 26.08 94.1 21.73 95.12 17.39 96.21 13.05 97.46 8.77 98.77 4.54 100.19 .4 101.69 2.96 98.77 5.61 95.92 8.37 93.19 11.19 90.57 14.12 88.01 17.11 85.57 20.21 83.24 23.37 80.96 26.64 78.86 29.97 76.81 33.35 74.93 36.79 73.17 40.28 71.46 43.84 69.93 47.45 68.5 51.05 67.2 54.78 66 58.46 64.99"/>
  <polygon class="cls-1" points="232.14 178.16 232.16 178.23 232.16 242.9 174.25 242.9 174.25 178.34 116.35 164.18 116.35 242.9 58.44 242.9 58.44 156.5 54.21 156.67 49.98 156.95 45.7 157.29 41.47 157.81 37.3 158.38 33.07 159.06 28.9 159.8 24.72 160.71 20.55 161.67 16.43 162.76 12.37 163.89 8.26 165.2 4.26 166.57 .25 168.05 2.73 165.2 5.33 162.41 8.03 159.74 10.8 157.12 13.62 154.62 16.55 152.23 19.54 149.9 22.64 147.74 25.79 145.63 29.01 143.59 32.28 141.71 35.61 139.95 38.99 138.3 42.43 136.7 45.92 135.28 49.48 133.97 53.03 132.78 56.69 131.7 60.3 130.73 64.02 129.88 67.69 129.14 71.47 128.57 75.19 128.12 78.96 127.77 82.74 127.55 86.46 127.43 90.24 127.49 94.02 127.6 97.8 127.89 101.57 128.34 105.3 128.85 109.02 129.48 112.68 130.28 116.35 131.19 116.35 131.13 184.63 147.8 184.68 147.8 189.03 148.76 193.42 149.67 197.82 150.53 202.22 151.21 206.67 151.78 211.13 152.23 215.58 152.57 220.04 152.8 224.55 152.97 229 152.97 233.46 152.86 237.91 152.63 242.42 152.35 246.88 151.89 251.27 151.32 255.73 150.7 260.13 149.9 264.52 149.05 268.86 148.02 273.21 146.94 277.55 145.69 281.83 144.38 286.06 142.96 290.2 141.46 287.64 144.38 284.99 147.23 282.23 149.96 279.41 152.57 276.48 155.13 273.49 157.58 270.39 159.91 267.23 162.19 263.96 164.29 260.63 166.34 257.25 168.22 253.81 169.98 250.31 171.69 246.76 173.22 243.15 174.64 239.55 175.95 235.82 177.15 232.14 178.16"/>
</svg>