<?xml version="1.0" encoding="utf-8"?>
<!-- Generator: Adobe Illustrator 27.8.1, SVG Export Plug-In . SVG Version: 6.00 Build 0)  -->
<svg version="1.1" id="Layer_1" xmlns="http://www.w3.org/2000/svg" xmlns:xlink="http://www.w3.org/1999/xlink" x="0px" y="0px"
	 viewBox="0 0 864 864" style="enable-background:new 0 0 864 864;" xml:space="preserve">
<style type="text/css">
	.st0{fill:#707070;}
</style>
<g>
	<path class="st0" d="M863.4,138.5C863,64.2,799.7,0.8,725.2,0.6c-196-0.8-392.1-0.7-588.1,0C64.4,0.8,0.9,64.5,0.3,137.3
		C-0.7,244,0,350.7,0,457.4c0,0-0.1,0-0.3,0V495c0,92.2,0.1,184.3-0.1,276.5c-0.1,19.9,3.4,38.7,14.9,55.1
		c28.6,41,80.5,49.3,124.2,20.2c45.4-30.2,90.6-60.7,136.3-90.5c6-3.9,14-6.5,21.1-6.5c133.8-0.3,267.6-0.2,401.4-0.3
		c12.1,0,24.3-0.7,36.3-1.8c73.6-7,129.4-66,129.7-140C864.2,451.3,864.2,294.9,863.4,138.5z M76.2,516.4c0-117.9,0-239.8-0.1-359.7
		c0-23.2,3.1-47.2,25.5-65.3c16.3-13.2,34.7-15,50.5-15h218.3c37.6,0,75.2,0,112.8,0c37.6,0,75.2,0,112.8,0c37.6,0,75.2,0,112.8,0
		c14,0,33.2,0,49.9,12.3c19.2,14.3,28.9,34.2,28.9,59.2c0,37.5,0,74.9,0,112.4c0,110.6,0,225-0.1,337.4
		c-0.1,48.2-26.9,74.7-75.5,74.7l-147.6,0c-93.2,0-193.3,0-293.8,0.3c-5,0-11.3,1.9-15.6,4.8c-44.8,29.5-88.7,58.8-135.1,89.8
		l-43.6,29.1v-18.7c0-8.9,0-15.3,0.1-22C76.3,675.9,76.2,596.1,76.2,516.4z"/>
	<g>
		<path class="st0" d="M649.9,222.5c0,7.9-3,15.3-8.5,20.8c-5.6,5.6-13,8.7-20.9,8.7H238.7c-16.3,0-29.5-13.2-29.5-29.5
			s13.2-29.5,29.5-29.5h381.7C636.7,193,649.9,206.2,649.9,222.5z"/>
		<path class="st0" d="M649.9,222.5c0,7.9-3,15.3-8.5,20.8c-5.6,5.6-13,8.7-20.9,8.7H238.7c-16.3,0-29.5-13.2-29.5-29.5
			s13.2-29.5,29.5-29.5h381.7C636.7,193,649.9,206.2,649.9,222.5z"/>
		<path class="st0" d="M649.9,535.7c0,7.9-3,15.2-8.6,20.8c-5.6,5.6-13,8.7-20.8,8.7H238.7c-16.3,0-29.5-13.2-29.5-29.5
			c0-16.3,13.2-29.5,29.5-29.5h381.7C636.7,506.2,649.9,519.4,649.9,535.7z"/>
		<path class="st0" d="M649.9,535.7c0,7.9-3,15.2-8.6,20.8c-5.6,5.6-13,8.7-20.8,8.7H238.7c-16.3,0-29.5-13.2-29.5-29.5
			c0-16.3,13.2-29.5,29.5-29.5h381.7C636.7,506.2,649.9,519.4,649.9,535.7z"/>
		<path class="st0" d="M477.8,374.8c0,7.9-3,15.3-8.5,20.8c-5.6,5.6-13,8.7-20.9,8.7H238.7c-16.3,0-29.5-13.2-29.5-29.5
			c0-16.3,13.2-29.5,29.5-29.5h209.6C464.6,345.3,477.8,358.5,477.8,374.8z"/>
		<path class="st0" d="M477.8,374.8c0,7.9-3,15.3-8.5,20.8c-5.6,5.6-13,8.7-20.9,8.7H238.7c-16.3,0-29.5-13.2-29.5-29.5
			c0-16.3,13.2-29.5,29.5-29.5h209.6C464.6,345.3,477.8,358.5,477.8,374.8z"/>
	</g>
</g>
</svg>
