<?xml version="1.0" encoding="utf-8"?>
<!-- Generator: Adobe Illustrator 27.8.1, SVG Export Plug-In . SVG Version: 6.00 Build 0)  -->
<svg version="1.1" id="Layer_1" xmlns="http://www.w3.org/2000/svg" xmlns:xlink="http://www.w3.org/1999/xlink" x="0px" y="0px"
	 viewBox="0 0 751.3 864" style="enable-background:new 0 0 751.3 864;" xml:space="preserve">
<style type="text/css">
	.st0{fill:#707070;}
</style>
<g>
	<path class="st0" d="M751.3,432.6c0,131.6,0,263.3,0,394.9c0,21.9-15.7,37.8-36.4,36.4c-5.3-0.4-10.8-2.2-15.6-4.6
		c-20.7-10.3-41.3-20.8-61.7-31.6c-4.5-2.4-7.9-2.3-12.4,0.1c-20,10.5-40.3,20.5-60.4,31c-13,6.9-25.4,6.7-38.3-0.3
		c-19.9-10.7-40.1-21-60.4-30.9c-2.9-1.4-7.8-1.4-10.8,0c-19.8,9.8-39.5,19.9-59,30.3c-13.8,7.4-27,7.9-41.1,0.2
		c-19.2-10.5-38.9-20-58.2-30.3c-4.7-2.5-8.3-2.6-13.1-0.1c-19.8,10.4-39.9,20.2-59.7,30.7c-13.5,7.2-26.2,6.8-39.6-0.5
		c-19.4-10.6-39.4-20.2-58.9-30.6c-4.5-2.4-7.9-2.1-12.4,0.3c-20.2,10.7-40.5,21.3-61,31.4c-22.4,11-45.1,1.4-51.1-21.1
		c-1-3.8-1.1-7.9-1.1-11.8C0,563.3,0,300.5,0,37.8C0,16.6,10.9,2.5,30.7,0.6C38.3-0.1,47,2.5,54.2,5.8c20.4,9.6,40.3,20.6,60.6,30.6
		c2.8,1.4,7.3,1.4,10.1,0.1c20.1-9.9,40-20,59.7-30.6c13.9-7.5,27-7.8,41-0.1c19.6,10.7,39.7,20.7,59.7,30.6
		c2.8,1.4,7.3,1.4,10.1,0.1c20.1-9.9,40-20.1,59.7-30.6c13.5-7.2,26.5-8.2,40.4-0.6c19.4,10.6,39.4,20.2,58.9,30.6
		c4.7,2.5,8.3,2.6,13.1,0.1c20-10.6,40.3-20.6,60.3-31c12.7-6.7,24.9-6.6,37.6,0.2c19.9,10.7,40.2,20.7,60.3,31.2
		c4.2,2.2,7.5,2.4,11.8,0.1C657.2,26,677.1,15.8,697,5.6c23.4-12,46.8-3.1,53.1,20.3c1.1,4.2,1.2,8.8,1.2,13.3
		C751.3,170.3,751.3,301.5,751.3,432.6z M69.5,772c11.5-5.8,21.9-11,32.2-16.4c12.4-6.5,24.5-6.5,37,0.1
		c20,10.6,40.3,20.7,60.3,31.1c4.3,2.3,7.7,2.7,12.4,0.2c19.7-10.6,39.9-20.3,59.6-30.8c13.5-7.2,26.3-7,39.7,0.2
		C330,767,350,776.6,369.5,787c4.4,2.3,7.9,2.5,12.4,0.1c20-10.6,40.3-20.5,60.3-31.1c12.7-6.7,24.9-6.8,37.6,0
		c19.9,10.7,40.2,20.7,60.3,31.2c4.1,2.2,7.4,2.5,11.7,0.2c16.7-8.9,34.3-16.2,50.2-26.2c20.7-13.1,39.8-12.7,59.7,0.7
		c6,4,13,6.6,20,10.1c0-227.3,0-453.3,0-680.5c-10.5,5.4-20.2,10.1-29.7,15.3c-14.1,7.7-27.5,7.6-41.7-0.3
		c-18.9-10.5-38.4-19.8-57.5-29.9c-4.7-2.5-8.4-2.5-13.1,0C519.8,87,499.8,97,479.9,107.3c-12.6,6.6-24.8,7-37.6,0.2
		c-20.2-10.8-40.6-21.1-61.1-31.2c-3-1.5-7.8-1.6-10.8-0.1c-20.1,9.8-40,20-59.8,30.6c-14.2,7.6-27.6,7.2-41.7-0.6
		c-18.7-10.3-38-19.6-56.9-29.6c-4.9-2.6-8.8-2.7-13.8,0c-16.4,8.9-33.7,16.2-49.5,26c-20.1,12.3-38.9,12.7-58.4-0.6
		c-6.2-4.2-13.5-6.8-21-10.5C69.5,318.7,69.5,544.7,69.5,772z"/>
	<path class="st0" d="M375,647.1c-66,0-132.1,0.1-198.1,0c-20,0-34.3-12.9-36.3-32.3c-1.9-17.8,11.2-34.2,28.9-36.4
		c3.9-0.5,8-0.7,11.9-0.7c129.6,0,259.2,0,388.8,0c20.6,0,33.2,7.6,38.6,23c8.1,23.2-8.3,46.1-33.4,46.3
		c-46.1,0.2-92.2,0.1-138.3,0.1C416.4,647.1,395.7,647.1,375,647.1z"/>
	<path class="st0" d="M375.7,286c-65,0-130.1-0.2-195.1,0.1c-23.5,0.1-33.8-10.9-38.1-23.6c-7.7-23.1,7.2-44,32.4-45.8
		c1.5-0.1,3-0.1,4.5-0.1c130.8,0,261.6,0,392.4,0c13.4,0,24.9,3.7,32.9,15.4c14.8,21.7,1.9,50.5-24.3,53.3
		c-6.4,0.7-12.9,0.6-19.4,0.6C499.3,286,437.5,286,375.7,286z"/>
	<path class="st0" d="M375.1,466.4c-66,0-132.1,0.1-198.1-0.1c-20.2,0-34-12.1-36.3-31.3c-2.3-18.6,12.2-36.3,31-37.7
		c2-0.2,4-0.2,6-0.2c132.1,0,264.1,0,396.2,0c18.9,0,31.6,9.6,35.9,26.5c5.3,20.6-10.1,41.4-31.4,42.5c-4,0.2-8,0.1-12,0.1
		C502.7,466.5,438.9,466.5,375.1,466.4z"/>
</g>
</svg>
