<?xml version="1.0" encoding="utf-8"?>
<!-- Generator: Adobe Illustrator 27.8.1, SVG Export Plug-In . SVG Version: 6.00 Build 0)  -->
<svg version="1.1" id="Layer_2" xmlns="http://www.w3.org/2000/svg" xmlns:xlink="http://www.w3.org/1999/xlink" x="0px" y="0px"
	 viewBox="0 0 846.8 782.5" style="enable-background:new 0 0 846.8 782.5;" xml:space="preserve">
<style type="text/css">
	.st0{fill:#707070;}
</style>
<path class="st0" d="M843.5,287.9c-5.8-8.7-17-14.8-32.5-17.9c-26-5.1-52.5-10.4-78-15.5c-42.9-8.5-87.3-17.4-131-25.8l-0.3-0.1
	c-14.3-3-24.2-9.9-31.9-22.4l-0.1-0.2c-28.1-46.2-57-93.1-85-138.4c-9.4-15.2-18.8-30.4-28.2-45.7c-7.8-12.8-14.3-18.6-23.1-20.8
	c-3.3-0.8-6.6-1.2-9.7-1.2c-12.8,0-23.6,7-32.2,20.8C352.1,84.3,313,148,276.7,207.4l-0.1,0.1c-7.6,12.3-17,18.7-30.6,20.9
	c-14.4,2.3-29.2,5.4-43.4,8.4c-7.5,1.6-15.3,3.2-22.9,4.7c-52.5,10.5-104,20.9-152.9,30.9c-11.6,2.5-18.7,7.7-22.9,16.8
	c-9,19.4-6.5,31.4,10,47.9c23.6,23.7,47.6,47.8,70.9,71.1c27.9,27.9,56.8,56.9,85.1,85.4c3.1,3.1,13,14.1,11.5,26.8
	c-3.2,27.3-7,55-10.8,81.8c-1.3,9.5-2.7,19-4,28.5c-2.4,18-4.9,36-7.3,54.6c-2.7,20.3-5.5,41.4-8.6,63.7c0.4,1,0.7,2.1,1.1,3.2
	c1.6,4.9,3.7,11,6.6,14.6l0.2,0.2c10.4,13.7,18.3,15.5,24.7,15.5c5.7,0,12.5-1.7,20.8-5.3c25.8-10.9,52-22.1,77.3-32.9
	c40.6-17.3,82.6-35.3,124-52.6l0.1,0c5.2-2.1,11.4-3.3,17.8-3.3c6.4,0,12.6,1.1,17.8,3.3l0.1,0c66.3,27.8,134.9,56.5,202.6,86.6
	c5.6,2.5,11.2,3.8,16.6,3.8c10,0,19.2-4.3,26-12.2c7.2-8.3,10.5-19.1,9.1-29.5c-4.6-32.7-9.1-66-13.4-98.1
	c-5-37.6-10.2-76.5-15.8-114.8c-2.1-15.1,1.6-26.1,12.4-36.6c59-58.3,107.5-106.9,152.7-153c8.5-8.7,14-17.3,15.3-24l0-0.2
	C849.3,303.4,848,294.7,843.5,287.9z M720.8,353.1c-3.5,3.1-7,6.1-10.4,9.1c-7.6,6.6-14.8,12.7-21.6,19.5c-9,8.8-18.1,18.1-26.8,27
	c-16.2,16.5-33,33.6-50.6,49.6c-16.4,14.9-21.5,31.2-17.3,56.5c5.4,33.9,9.9,68.2,14.3,101.5c1.5,11.8,3.1,23.6,4.7,35.4l0,0.4
	c0.3,2.8,0.2,5.3,0.2,8c0,1.2-0.1,2.6-0.1,4.2v22.6l-21.2-8.1c-2-0.8-4-1.5-6-2.1c-3.1-1.1-6.4-2.2-9.6-3.7
	c-8.6-3.7-17.3-7.3-25.9-11c-35.2-15-71.7-30.4-107.4-46.1c-6.8-3-13.2-4.5-19.5-4.5c-6.4,0-12.8,1.5-19.8,4.5
	c-32.5,14.2-65.5,28.2-97.5,41.7c-11.5,4.9-23,9.8-34.5,14.7l-0.4,0.2c-3.8,1.5-7.7,3.1-13,5.2l-28.8,11.7l3.7-26.8
	c2.1-15.6,4-30.2,5.8-44.3c0.8-5.9,1.5-11.7,2.3-17.5c1.4-10.4,2.7-21,4-31.3c2.8-22.7,5.8-46.1,9.3-69.2
	c2.2-14.2-2.1-25.4-14.3-37.6c-19-18.8-38.1-38-56.7-56.5c-14.8-14.8-30-30-45-44.9c-1.3-1.2-2.9-2.5-4.9-4.1
	c-2.2-1.8-4.9-3.9-8.1-6.8l-24-20.8l31.1-6.2c32.6-6.5,61.3-12.3,90-18.1l0.3-0.1c8.2-1.6,16.5-3.4,24.6-5c14.3-3,29.1-6,43.8-8.8
	c12.9-2.4,22.4-9.2,29.7-21.4c18.4-30.3,37.3-60.9,55.6-90.5c8.3-13.4,16.6-26.9,24.9-40.4c1.9-3.1,3.8-6.1,6.3-10l2.7-4.2l13.4-21
	l13.1,21.1c7.4,11.9,14.7,23.7,21.9,35.4c22.1,35.6,42.9,69.1,63.4,104c9.9,16.9,22.8,25.7,43.1,29.4c50.4,9,99.1,19.6,148.8,32.4
	l28.4,7.3L720.8,353.1z"/>
</svg>
