<svg width="30" height="30" viewBox="0 0 30 30" fill="none" xmlns="http://www.w3.org/2000/svg">
<path d="M12.3989 0.000213773C17.5566 0.2503 21.3819 2.58917 23.6443 7.30942C24.5875 9.2767 24.8948 11.3786 24.6946 13.5555C24.4692 16.0118 23.5816 18.1988 22.0582 20.1296C21.9288 20.2937 21.9156 20.3878 22.0743 20.5468C24.5187 22.9829 26.955 25.427 29.3933 27.8692C29.5712 28.0474 29.7694 28.2124 29.8826 28.4433C30.0605 28.8057 30.0929 29.2775 29.5692 29.722C29.2073 30.0298 28.7473 30.0956 28.3349 29.8506C28.0923 29.7068 27.9123 29.4922 27.7162 29.2968C25.2941 26.8881 22.8719 24.4783 20.4549 22.0645C20.3093 21.9187 20.2153 21.9187 20.0576 22.0473C18.5099 23.3058 16.7539 24.1219 14.7968 24.5117C12.8033 24.9086 10.831 24.8357 8.88905 24.2384C5.15577 23.0902 2.51628 20.6936 0.961504 17.1205C0.161876 15.2849 -0.13331 13.3459 0.0547192 11.3452C0.425723 7.39245 2.28175 4.31446 5.53789 2.07988C7.04313 1.04612 8.72427 0.43255 10.5217 0.147026C11.1373 0.0498261 11.758 -0.00383621 12.3989 0.000213773ZM22.5485 12.3709C22.5768 6.84266 18.0641 2.24998 12.5728 2.21657C6.87431 2.18214 2.33432 6.64725 2.29692 12.3223C2.25951 17.9153 6.7439 22.4736 12.3069 22.4999C17.9609 22.5262 22.5201 18.0176 22.5485 12.3719V12.3709Z" fill="#707070"/>
</svg>
