<svg width="25" height="30" viewBox="0 0 25 30" fill="none" xmlns="http://www.w3.org/2000/svg">
<path d="M24.9765 25.2547C24.9258 24.7277 24.8741 24.2016 24.8204 23.6755C24.6385 21.8814 24.4537 20.0884 24.2746 18.2943C24.0926 16.4762 23.9202 14.658 23.7373 12.8399C23.6885 12.3465 23.6703 11.8474 23.5037 11.3724C22.8783 9.58513 21.6353 8.53875 19.7832 8.2179C19.3427 8.14082 19.3369 8.14179 19.3427 7.6899C19.3542 6.78227 19.3331 5.88043 19.087 4.99593C17.8956 0.711195 12.8929 -1.32952 9.07087 0.93473C7.20632 2.03988 6.09832 3.68941 5.74015 5.84574C5.62715 6.53176 5.66929 7.22163 5.66641 7.90958C5.66546 8.10999 5.61757 8.17936 5.40689 8.20249C3.84591 8.37688 2.66417 9.14673 1.86357 10.513C1.41539 11.278 1.32058 12.124 1.24301 12.9815C1.12235 14.3063 0.989234 15.6292 0.857078 16.9531C0.724922 18.277 0.58702 19.5999 0.453906 20.9237C0.315046 22.3035 0.194382 23.6851 0.0373266 25.062C-0.144628 26.6585 0.331326 27.9708 1.62607 28.9449C2.5684 29.6531 3.63523 29.9981 4.81314 29.9981H12.4868C15.0371 29.9981 17.5854 29.9961 20.1356 30C20.9621 30.0019 21.7502 29.8429 22.4933 29.4797C24.0409 28.7233 25.1796 27.3657 24.9765 25.2547ZM7.93988 7.16671C7.93988 6.71386 7.95425 6.28414 8.06725 5.88043C8.57864 4.04687 9.68952 2.94558 11.4621 2.512C11.8232 2.42432 12.1899 2.37903 12.5539 2.37903C14.178 2.37903 15.6423 3.24715 16.4697 4.70109C16.8633 5.39193 17.0625 6.13672 17.0625 6.91524C17.0625 6.99906 17.0615 7.08193 17.0606 7.16671H17.0625V8.25837H7.93988V7.16671ZM21.3978 27.4669C21.0425 27.6278 20.6575 27.7059 20.2141 27.7059C18.927 27.703 17.64 27.702 16.3519 27.702H13.9846L7.84508 27.7001C6.82039 27.7001 5.79474 27.701 4.76622 27.703C4.1064 27.703 3.52319 27.5064 2.98115 27.1037C2.44487 26.7048 2.22365 26.2211 2.28398 25.5833C2.34814 24.9117 2.4171 24.2286 2.48509 23.5676C2.53393 23.0839 2.58373 22.6012 2.63161 22.1185C2.69577 21.4642 2.75898 20.811 2.82314 20.1568C2.88635 19.5025 2.94955 18.8483 3.01467 18.1951L3.14491 16.8673C3.29048 15.3826 3.44083 13.8467 3.59692 12.3379C3.67833 11.5574 4.42625 10.7433 5.26611 10.5226C5.46818 10.4687 5.67408 10.4426 5.89434 10.4426C5.94509 10.4426 5.99585 10.4446 6.04181 10.4465C6.14811 10.4532 6.25729 10.4571 6.3655 10.4571C7.38923 10.4571 12.5031 10.4581 12.5088 10.4581C14.9786 10.4581 16.8662 10.4561 18.6311 10.4513H18.7575C19.289 10.4504 19.7621 10.4687 20.1634 10.6912C20.9429 11.1239 21.3432 11.7126 21.4256 12.546C21.5089 13.3939 21.5951 14.2418 21.6813 15.0897C21.7579 15.8441 21.8345 16.5985 21.9092 17.3529C22.0059 18.328 22.1007 19.3031 22.1965 20.2782C22.276 21.0971 22.3554 21.9161 22.4368 22.7351C22.4598 22.9673 22.4809 23.2005 22.502 23.4327C22.5565 24.0339 22.614 24.6554 22.6992 25.2711C22.8477 26.3309 22.4579 26.9871 21.3978 27.4669Z" fill="#707070"/>
</svg>
