<?xml version="1.0" encoding="utf-8"?>
<!-- Generator: Adobe Illustrator 27.7.0, SVG Export Plug-In . SVG Version: 6.00 Build 0)  -->
<svg version="1.1" id="Layer_1" xmlns="http://www.w3.org/2000/svg" xmlns:xlink="http://www.w3.org/1999/xlink" x="0px" y="0px"
	 viewBox="0 0 172.4 172.8" style="enable-background:new 0 0 172.4 172.8;" xml:space="preserve">
<style type="text/css">
	.st0{fill:#707070;}
</style>
<path class="st0" d="M63.7,172.8c-5.5,0-8.5-2.9-8.5-8.4c0-12.8,0-25.9,0-40.1c0-4.5,2.3-7.5,6.2-8.2c0.5-0.1,1-0.1,1.5-0.1
	c4.2,0,7.5,3.4,7.5,7.8c0,7-0.3,20.9-0.3,20.9V157h87V15h-87v12.9c0.3,7,0.4,14.1,0.3,21.1c0,3.5-1.8,6.2-5,7.4
	c-0.9,0.3-1.8,0.5-2.7,0.5c-2.2,0-4.2-1-5.7-2.8c-0.9-1.1-1.5-2.7-1.6-4c-0.2-2.8-0.2-5.8-0.2-8.6c0-1,0-1.9,0-2.8
	c0-10,0-20.1,0-30.1c0-4.4,1.9-7.2,5.7-8.2c0.5-0.1,1.1-0.2,2-0.2c21.1,0,42.3,0,63.5,0h38.2c4.5,0,7.7,3.2,7.8,7.7
	c0,1.3,0,2.6-0.2,3.9v36.8c0.2,37.9,0.2,77.1,0.3,115.7c0,4.4-2.2,7.7-5.8,8.5c-0.8,0.2-1.7,0.3-2.8,0.3c-19.4,0-38.7,0-58.1,0
	C91.7,172.8,77.7,172.8,63.7,172.8L63.7,172.8z"/>
<path class="st0" d="M0,86.6c0-4.1,3.4-7.5,7.5-7.5c0.2,0,0.3,0,0.5,0v0h96.9l-2.2-2.7c-0.2-0.2-0.3-0.4-0.5-0.6
	c-0.3-0.4-0.5-0.7-0.8-0.9l-2.1-2.1c-2.4-2.4-4.9-5-7.4-7.4c-2.4-2.3-3.1-4.9-2.1-7.9c0.9-3,3.2-4.8,6.6-5.2
	c0.2-0.1,0.5-0.1,0.7-0.1c2.2,0,3.9,1.2,4.9,2.2c9,8.9,18,17.9,26.6,26.6c3.2,3.2,3.2,7.7-0.1,11c-8.6,8.6-17.5,17.5-26.5,26.4
	c-1.4,1.4-3.3,2.2-5.4,2.2s-3.8-0.7-5.1-2c-3-3-3.1-7.5-0.1-10.6c2.1-2.2,4.3-4.3,6.4-6.4c1-1,2-2,3-3c0.3-0.3,0.6-0.6,1-1.1
	l3.3-3.5H9c-0.3,0-0.6,0-0.9,0c-0.2,0-0.3,0-0.5,0C3.4,94.1,0,90.8,0,86.6L0,86.6z"/>
</svg>
